<svg xmlns="http://www.w3.org/2000/svg" version="1.1" xmlns:xlink="http://www.w3.org/1999/xlink" xmlns:svgjs="http://svgjs.com/svgjs" width="1440" height="700" preserveAspectRatio="none" viewBox="0 0 1440 700"><g mask="url(&quot;#SvgjsMask10294&quot;)" fill="none"><rect width="1440" height="700" x="0" y="0" fill="url(#SvgjsLinearGradient10295)"></rect><path d="M695.19 638.82L683.22 643.38 676.15 632.7 664.18 637.25 657.11 626.58 645.14 631.13 638.07 620.45M697.64 631.21L685.67 635.76 678.6 625.09 666.63 629.64 659.56 618.96 647.59 623.52 640.52 612.84M700.09 623.59L688.12 628.15 681.05 617.47 669.08 622.02 662.01 611.35 650.04 615.9 642.97 605.22" stroke="#037b0b" stroke-width="1.19"></path><circle r="64.97799576522516" cx="468.3" cy="596.16" stroke="#d3b714" stroke-width="1.93" stroke-dasharray="3, 3"></circle><rect width="300" height="300" clip-path="url(&quot;#SvgjsClipPath10296&quot;)" x="838.62" y="349.76" fill="url(#SvgjsPattern10297)" transform="rotate(127.82, 988.62, 499.76)"></rect><rect width="192" height="192" clip-path="url(&quot;#SvgjsClipPath10298&quot;)" x="810.49" y="243.62" fill="url(#SvgjsPattern10299)" transform="rotate(236.46, 906.49, 339.62)"></rect><path d="M293.7 608.6a5.6 5.6 0 1 0 9.74 5.54 5.6 5.6 0 1 0-9.74-5.54zM307.61 616.51a5.6 5.6 0 1 0 9.74 5.53 5.6 5.6 0 1 0-9.74-5.53zM321.52 624.42a5.6 5.6 0 1 0 9.73 5.53 5.6 5.6 0 1 0-9.73-5.53zM335.43 632.32a5.6 5.6 0 1 0 9.73 5.54 5.6 5.6 0 1 0-9.73-5.54z" stroke="#037b0b" stroke-width="1" stroke-dasharray="4, 4"></path><rect width="122.2" height="122.2" clip-path="url(&quot;#SvgjsClipPath10300&quot;)" x="429.78" y="123.01" fill="url(#SvgjsPattern10301)" transform="rotate(173.9, 490.88, 184.11)"></rect><rect width="372" height="372" clip-path="url(&quot;#SvgjsClipPath10302&quot;)" x="-144.68" y="312.18" fill="url(#SvgjsPattern10303)" transform="rotate(5.19, 41.32, 498.18)"></rect><rect width="207.35999999999999" height="207.35999999999999" clip-path="url(&quot;#SvgjsClipPath10304&quot;)" x="1157.81" y="338.09" fill="url(#SvgjsPattern10305)" transform="rotate(184.99, 1261.49, 441.77)"></rect><rect width="292.88" height="292.88" clip-path="url(&quot;#SvgjsClipPath10306&quot;)" x="1181.23" y="479.31" fill="url(#SvgjsPattern10307)" transform="rotate(18.07, 1327.67, 625.75)"></rect><rect width="240" height="240" clip-path="url(&quot;#SvgjsClipPath10308&quot;)" x="1027.8" y="68.33" fill="url(#SvgjsPattern10309)" transform="rotate(140.99, 1147.8, 188.33)"></rect></g><defs><mask id="SvgjsMask10294"><rect width="1440" height="700" fill="#ffffff"></rect></mask><linearGradient x1="100%" y1="50%" x2="0%" y2="50%" gradientUnits="userSpaceOnUse" id="SvgjsLinearGradient10295"><stop stop-color="#0e2a47" offset="0"></stop><stop stop-color="rgba(218, 7, 188, 1)" offset="1"></stop></linearGradient><pattern x="0" y="0" width="6" height="6" patternUnits="userSpaceOnUse" id="SvgjsPattern10297"><path d="M0 6L3 0L6 6" stroke="#d3b714" fill="none"></path></pattern><clipPath id="SvgjsClipPath10296"><circle r="75" cx="988.62" cy="499.76"></circle></clipPath><pattern x="0" y="0" width="192" height="6" patternUnits="userSpaceOnUse" id="SvgjsPattern10299"><rect width="192" height="3" x="0" y="0" fill="#d3b714"></rect><rect width="192" height="3" x="0" y="3" fill="rgba(0, 0, 0, 0)"></rect></pattern><clipPath id="SvgjsClipPath10298"><circle r="48" cx="906.49" cy="339.62"></circle></clipPath><pattern x="0" y="0" width="12.22" height="12.22" patternUnits="userSpaceOnUse" id="SvgjsPattern10301"><path d="M0 12.22L6.11 0L12.22 12.22" stroke="#e73635" fill="none"></path></pattern><clipPath id="SvgjsClipPath10300"><circle r="30.55" cx="490.88" cy="184.11"></circle></clipPath><pattern x="0" y="0" width="6" height="6" patternUnits="userSpaceOnUse" id="SvgjsPattern10303"><path d="M3 1L3 5M1 3L5 3" stroke="#037b0b" fill="none" stroke-width="1"></path></pattern><clipPath id="SvgjsClipPath10302"><circle r="93" cx="41.32" cy="498.18"></circle></clipPath><pattern x="0" y="0" width="11.52" height="11.52" patternUnits="userSpaceOnUse" id="SvgjsPattern10305"><path d="M0 11.52L5.76 0L11.52 11.52" stroke="rgba(92, 229, 43, 1)" fill="none"></path></pattern><clipPath id="SvgjsClipPath10304"><circle r="51.839999999999996" cx="1261.49" cy="441.77"></circle></clipPath><pattern x="0" y="0" width="10.46" height="10.46" patternUnits="userSpaceOnUse" id="SvgjsPattern10307"><path d="M0 10.46L5.23 0L10.46 10.46" stroke="#d3b714" fill="none"></path></pattern><clipPath id="SvgjsClipPath10306"><circle r="73.22" cx="1327.67" cy="625.75"></circle></clipPath><pattern x="0" y="0" width="240" height="6" patternUnits="userSpaceOnUse" id="SvgjsPattern10309"><rect width="240" height="3" x="0" y="0" fill="#d3b714"></rect><rect width="240" height="3" x="0" y="3" fill="rgba(0, 0, 0, 0)"></rect></pattern><clipPath id="SvgjsClipPath10308"><circle r="60" cx="1147.8" cy="188.33"></circle></clipPath></defs></svg>